<svg width="20" height="20" viewBox="0 0 20 20" fill="none" xmlns="http://www.w3.org/2000/svg">
<path fill-rule="evenodd" clip-rule="evenodd" d="M8.80374 15.1181L11.5865 12.3352C12.1925 11.7293 13.0119 11.3804 13.8688 11.3707C14.727 11.3611 15.553 11.6932 16.1603 12.3005L19.4669 15.6071C20.1777 16.3179 20.1777 17.4701 19.4669 18.1808C18.0926 19.5552 16.1302 20.2656 14.176 19.9083C13.4249 19.7709 12.6131 19.6011 12.039 19.4154C11.0369 19.0915 9.98605 18.7424 8.22056 17.3384C7.41859 16.7006 6.47236 15.8484 5.31196 14.688C4.15155 13.5276 3.29944 12.5814 2.6616 11.7794C1.25757 10.014 0.908524 8.9631 0.584572 7.96105C0.398928 7.38688 0.229022 6.57499 0.0916708 5.82387C-0.265655 3.86979 0.444795 1.90737 1.81916 0.533015C2.52985 -0.177672 3.68211 -0.177672 4.39279 0.533015L7.6995 3.83969C8.30681 4.44701 8.63888 5.27291 8.62932 6.13113C8.61961 6.98811 8.27076 7.80756 7.6647 8.41348L4.88195 11.1963C5.38136 11.7721 6.00285 12.4376 6.78261 13.2174C7.56237 13.9971 8.22791 14.6187 8.80374 15.1181ZM3.59629 9.5406L6.19412 6.94284C6.42043 6.71653 6.54613 6.41476 6.54957 6.10777C6.55301 5.80201 6.43529 5.51682 6.22881 5.31034L3.11145 2.19297C2.29551 3.11254 1.92964 4.31279 2.13755 5.44977C2.27389 6.19531 2.42376 6.88897 2.56353 7.3213L2.57401 7.35374C2.78174 7.9964 2.98219 8.61674 3.59629 9.5406ZM10.4593 16.4037C11.3833 17.0178 12.0035 17.2183 12.6463 17.426C12.6571 17.4295 12.6679 17.4329 12.6787 17.4364C13.111 17.5762 13.8047 17.7261 14.5503 17.8625C15.6872 18.0703 16.8874 17.7044 17.807 16.8886L14.6896 13.7712C14.4832 13.5648 14.1979 13.4469 13.8922 13.4504C13.5852 13.4538 13.2835 13.5796 13.0571 13.8059L10.4593 16.4037Z" fill="white"/>
</svg>
