<svg width="20" height="20" viewBox="0 0 20 20" fill="none" xmlns="http://www.w3.org/2000/svg">
<path fill-rule="evenodd" clip-rule="evenodd" d="M10 1.66667C5.39762 1.66667 1.66667 5.39762 1.66667 10C1.66667 12.5874 2.84494 14.8991 4.69731 16.4289L5 16.6788V18.3333H10C14.6023 18.3333 18.3333 14.6023 18.3333 10C18.3333 5.39762 14.6023 1.66667 10 1.66667ZM0 10C0 4.47716 4.47716 0 10 0C15.5229 0 20 4.47716 20 10C20 15.5229 15.5229 20 10 20H3.33333V17.4537C1.28871 15.6237 0 12.962 0 10ZM10.8333 13.3333V15H9.16667V13.3333H10.8333ZM8.33333 8.25755C8.33333 7.40292 9.05522 6.66667 10 6.66667C10.9448 6.66667 11.6667 7.40292 11.6667 8.25755C11.6667 8.59889 11.4612 9.00344 11.0084 9.46211C10.5696 9.90678 10.0116 10.2881 9.54755 10.588L9.16667 10.8343V12.5H10.8333V11.7359C11.2569 11.4478 11.7587 11.0746 12.1947 10.6329C12.7576 10.0627 13.3333 9.25511 13.3333 8.25755C13.3333 6.43448 11.8166 5 10 5C8.18344 5 6.66667 6.43448 6.66667 8.25755H8.33333Z" fill="white"/>
</svg>
