<svg width="20" height="20" viewBox="0 0 20 20" fill="none" xmlns="http://www.w3.org/2000/svg">
<path fill-rule="evenodd" clip-rule="evenodd" d="M8.29867 17.1954C6.78149 18.7127 4.32169 18.7127 2.80454 17.1954C1.28738 15.6783 1.28738 13.2186 2.80454 11.7013L6.66371 7.84222L12.1578 13.3363L8.29867 17.1954ZM13.3363 12.1578L17.1954 8.29867C18.7127 6.78149 18.7127 4.32169 17.1954 2.80454C15.6783 1.28738 13.2186 1.28738 11.7013 2.80454L7.84222 6.66368L13.3363 12.1578ZM1.62602 18.374C3.79406 20.542 7.30912 20.542 9.47711 18.374L18.374 9.47711C20.542 7.30912 20.542 3.79406 18.374 1.62602C16.206 -0.542008 12.6909 -0.542008 10.5229 1.62602L1.62602 10.5229C-0.542008 12.6909 -0.542008 16.206 1.62602 18.374Z" fill="white"/>
</svg>
