<svg width="20" height="18" viewBox="0 0 20 18" fill="none" xmlns="http://www.w3.org/2000/svg">
<path fill-rule="evenodd" clip-rule="evenodd" d="M9.99222 1.46936C8.93189 0.555087 7.53698 0 6.00884 0C2.69024 0 0 2.61785 0 5.84714C0 7.33418 0.562656 8.69913 1.50221 9.73091L10 18L18.2462 9.97571L18.49 9.72338C19.4296 8.69149 20 7.33418 20 5.84714C20 2.61785 17.3098 0 13.9911 0C12.463 0 11.0681 0.555087 10.0078 1.46937L10 1.4618L9.99222 1.46936ZM10 3.65387L10.061 3.70642L11.0088 2.78409L11.1076 2.6989C11.8742 2.03788 12.8813 1.63636 13.9911 1.63636C16.4033 1.63636 18.3333 3.53534 18.3333 5.84714C18.3333 6.90687 17.9317 7.87353 17.2626 8.61611L17.0547 8.83124L10 15.6961L2.71416 8.60629C2.05992 7.87178 1.66667 6.90644 1.66667 5.84714C1.66667 3.53534 3.59666 1.63636 6.00884 1.63636C7.11861 1.63636 8.12578 2.03788 8.89244 2.69889L8.99122 2.78403L9.93911 3.70639L10 3.65387Z" fill="white"/>
</svg>
