<svg width="18" height="18" viewBox="0 0 18 18" fill="none" xmlns="http://www.w3.org/2000/svg">
<path fill-rule="evenodd" clip-rule="evenodd" d="M13.0603 15.307C11.89 16.0619 10.4962 16.5 9 16.5C7.5038 16.5 6.10996 16.0619 4.93972 15.307C5.66519 13.7938 7.2115 12.75 9 12.75C10.7886 12.75 12.3349 13.794 13.0603 15.307ZM14.2545 14.3516C13.2326 12.5027 11.2632 11.25 9 11.25C6.73663 11.25 4.76733 12.5029 3.74545 14.3516C2.3596 12.9907 1.5 11.0958 1.5 9C1.5 4.85786 4.85786 1.5 9 1.5C13.1421 1.5 16.5 4.85786 16.5 9C16.5 11.0958 15.6404 12.9908 14.2545 14.3516ZM18 9C18 13.9706 13.9706 18 9 18C4.02944 18 0 13.9706 0 9C0 4.02944 4.02944 0 9 0C13.9706 0 18 4.02944 18 9ZM9 9C10.2426 9 11.25 7.9926 11.25 6.75C11.25 5.50736 10.2426 4.5 9 4.5C7.7574 4.5 6.75 5.50736 6.75 6.75C6.75 7.9926 7.7574 9 9 9ZM9 10.5C11.0711 10.5 12.75 8.8211 12.75 6.75C12.75 4.67893 11.0711 3 9 3C6.92893 3 5.25 4.67893 5.25 6.75C5.25 8.8211 6.92893 10.5 9 10.5Z" fill="white"/>
</svg>
