<svg width="18" height="17" viewBox="0 0 18 17" fill="none" xmlns="http://www.w3.org/2000/svg">
<path fill-rule="evenodd" clip-rule="evenodd" d="M1.50001 5.68344C1.50001 3.36953 3.38368 1.49374 5.70731 1.49374C6.77779 1.49374 7.75334 1.89088 8.49625 2.5464L8.59185 2.63082L8.97535 3.01269L9.00005 2.99095L9.02465 3.0127L9.40815 2.63087L9.50385 2.5464C10.2468 1.89088 11.2223 1.49374 12.2928 1.49374C14.6164 1.49374 16.5 3.36953 16.5 5.68344C16.5 6.74571 16.1041 7.71395 15.45 8.45275L15.2647 8.64912L9.00005 14.8876L5.03036 10.9344L3.96969 11.9907L9.00005 17L16.3417 9.68896L16.5583 9.45952L16.5656 9.45136C17.4576 8.44886 18 7.1283 18 5.68344C18 2.54456 15.4448 0 12.2928 0C11.097 0 9.98596 0.366891 9.06865 0.993165L8.99995 0.924791L8.93135 0.993145C8.01404 0.366881 6.90311 0 5.70731 0C2.55524 0 0 2.54456 0 5.68344C0 7.12462 0.533493 8.45245 1.42799 9.45773L2.55067 8.46709C1.8949 7.73008 1.50001 6.75308 1.50001 5.68344ZM9.75005 8.65301L6.75004 5.66558L1.93935 10.4561H0V11.9499H2.56067L6.75004 7.77808L9.75005 10.7655L12.3108 8.21554H14.2501V6.72181H11.6894L9.75005 8.65301Z" fill="white"/>
</svg>
