<svg width="80" height="80" viewBox="0 0 80 80" fill="none" xmlns="http://www.w3.org/2000/svg">
<rect width="80" height="80" rx="5" fill="#F15046"/>
<path fill-rule="evenodd" clip-rule="evenodd" d="M55 40C55 48.2842 48.2842 55 40 55C31.7157 55 25 48.2842 25 40C25 31.7157 31.7157 25 40 25C48.2842 25 55 31.7157 55 40ZM58 40C58 49.9412 49.9412 58 40 58C30.0589 58 22 49.9412 22 40C22 30.0589 30.0589 22 40 22C49.9412 22 58 30.0589 58 40ZM34.75 37C35.9926 37 37 35.9926 37 34.75C37 33.5074 35.9926 32.5 34.75 32.5C33.5074 32.5 32.5 33.5074 32.5 34.75C32.5 35.9926 33.5074 37 34.75 37ZM47.5 34.75C47.5 35.9926 46.4926 37 45.25 37C44.0074 37 43 35.9926 43 34.75C43 33.5074 44.0074 32.5 45.25 32.5C46.4926 32.5 47.5 33.5074 47.5 34.75ZM40 43C43.6434 43 46 45.3098 46 47.5H49C49 43.0628 44.641 40 40 40C35.3591 40 31 43.0628 31 47.5H34C34 45.3098 36.3566 43 40 43Z" fill="white"/>
</svg>
