<svg width="48" height="48" viewBox="0 0 48 48" fill="none" xmlns="http://www.w3.org/2000/svg">
<path d="M24.0368 33.6C25.8068 33.6 27.2417 35.0327 27.2417 36.8V47.7781C26.1697 47.9241 25.0753 48 23.9632 48C22.902 48 21.8568 47.931 20.8319 47.7978V36.8C20.8319 35.0327 22.2668 33.6 24.0368 33.6Z" fill="#FF5722"/>
<path d="M19.4698 24.08C21.973 21.5807 26.0314 21.5807 28.5346 24.08L43.0571 38.5803C41.7527 40.2808 40.2254 41.8018 38.5191 43.1002L24.0022 28.6055L9.45149 43.1338C7.74204 41.8392 6.21142 40.3216 4.90313 38.6242L19.4698 24.08Z" fill="#FF5722"/>
<path d="M47.7878 20.8C47.9275 21.8469 48 22.915 48 24C48 25.085 47.9275 26.1531 47.7878 27.2H38.7278C37.6129 24.652 35.8524 22.45 33.6529 20.8H47.7878Z" fill="#FFAB93"/>
<path d="M14.4207 20.8C12.2211 22.45 10.4607 24.652 9.34571 27.2H0.13865C0.080776 26.7663 0.0343523 26.329 0 25.8883V22.1116C0.0343511 21.6709 0.0807828 21.2336 0.13865 20.8H14.4207Z" fill="#FFAB93"/>
<path d="M23.9632 0C25.0753 0 26.1697 0.0757457 27.2417 0.221719V16.32L38.6099 4.96906C40.3098 6.27534 41.8296 7.80366 43.1261 9.51047L32.5673 20.0533C30.0971 18.4992 27.1721 17.6 24.0368 17.6C20.8834 17.6 17.9428 18.5095 15.4637 20.08L4.83365 9.46625C6.13402 7.76252 7.65735 6.2376 9.36041 4.93516L20.8319 16.3891V8.29555V0.202031C21.8568 0.0688946 22.902 0 23.9632 0Z" fill="#FFAB93"/>
</svg>
