<svg width="62" height="79" viewBox="0 0 62 79" fill="none" xmlns="http://www.w3.org/2000/svg">
<path d="M0 5C0 2.23858 2.23858 0 5 0L57 0C59.7614 0 62 2.23858 62 5V55C62 57.7614 59.7614 60 57 60H41H21H5C2.23858 60 0 57.7614 0 55V5Z" fill="#FF5722"/>
<path d="M21 60L29.2475 74.9993C30.0073 76.3811 31.9927 76.3811 32.7525 74.9993L41 60H21Z" fill="#FF5722"/>
<path d="M31.0245 36.4C32.2045 36.4 33.1611 37.3551 33.1611 38.5333V45.8521C32.4465 45.9494 31.7169 46 30.9755 46C30.268 46 29.5712 45.954 28.8879 45.8652V38.5333C28.8879 37.3551 29.8445 36.4 31.0245 36.4Z" fill="white"/>
<path d="M27.9799 30.0533C29.6486 28.3871 32.3543 28.3871 34.0231 30.0533L43.7048 39.7202C42.8351 40.8539 41.817 41.8678 40.6794 42.7334L31.0015 33.0703L21.301 42.7558C20.1614 41.8928 19.1409 40.8811 18.2688 39.7495L27.9799 30.0533Z" fill="white"/>
<path d="M46.8585 27.8667C46.9517 28.5646 47 29.2767 47 30C47 30.7233 46.9517 31.4354 46.8585 32.1333H40.8186C40.0752 30.4346 38.9016 28.9667 37.4353 27.8667H46.8585Z" fill="#FFC0AE"/>
<path d="M24.6138 27.8667C23.1474 28.9667 21.9738 30.4346 21.2305 32.1333H15.0924C15.0539 31.8442 15.0229 31.5527 15 31.2589V28.741C15.0229 28.4473 15.0539 28.1558 15.0924 27.8667H24.6138Z" fill="#FFC0AE"/>
<path d="M30.9755 14C31.7169 14 32.4465 14.0505 33.1611 14.1478V24.88L40.7399 17.3127C41.8732 18.1836 42.8864 19.2024 43.7508 20.3403L36.7116 27.3689C35.0647 26.3328 33.1148 25.7333 31.0245 25.7333C28.9223 25.7333 26.9619 26.3397 25.3091 27.3867L18.2224 20.3108C19.0893 19.175 20.1049 18.1584 21.2403 17.2901L28.8879 24.926V19.5304V14.1347C29.5712 14.0459 30.268 14 30.9755 14Z" fill="#FFC0AE"/>
</svg>
