<svg width="13" height="16" viewBox="0 0 13 16" fill="none" xmlns="http://www.w3.org/2000/svg">
<path fill-rule="evenodd" clip-rule="evenodd" d="M6.74683 14.2164C6.63581 14.3 6.53233 14.3758 6.43777 14.4438C6.33689 14.3752 6.22501 14.2963 6.10367 14.2073C5.53159 13.7875 4.78963 13.1712 4.05893 12.4026C2.56015 10.826 1.3 8.81342 1.3 6.66667C1.3 3.72115 3.62812 1.33333 6.5 1.33333C9.37187 1.33333 11.7 3.72115 11.7 6.66667C11.7 8.7904 10.3843 10.7972 8.83073 12.3905C8.07699 13.1636 7.31848 13.7866 6.74683 14.2164ZM13 6.66667C13 12 6.5 16 6.5 16C6.175 16 0 12 0 6.66667C0 2.98476 2.91015 0 6.5 0C10.0898 0 13 2.98476 13 6.66667ZM7.8 6.66667C7.8 7.40302 7.21795 8 6.5 8C5.78205 8 5.2 7.40302 5.2 6.66667C5.2 5.93028 5.78205 5.33333 6.5 5.33333C7.21795 5.33333 7.8 5.93028 7.8 6.66667ZM9.1 6.66667C9.1 8.13947 7.93598 9.33333 6.5 9.33333C5.06402 9.33333 3.9 8.13947 3.9 6.66667C3.9 5.19391 5.06402 4 6.5 4C7.93598 4 9.1 5.19391 9.1 6.66667Z" fill="#1A365D"/>
</svg>
