<svg width="26" height="19" viewBox="0 0 26 19" fill="none" xmlns="http://www.w3.org/2000/svg">
<path d="M1 0.75H10.1426C10.2806 0.75 10.3926 0.861928 10.3926 1V11.1689C10.3925 11.2069 10.3839 11.2442 10.3672 11.2783L7.0293 18.1094C6.98742 18.1951 6.90003 18.2498 6.80469 18.25H3.45898C3.27423 18.25 3.15349 18.0566 3.23438 17.8906L5.54199 13.168C6.1098 12.0055 5.26355 10.6504 3.96973 10.6504H1C0.862059 10.6504 0.750211 10.5383 0.75 10.4004V1C0.75 0.861929 0.861929 0.75 1 0.75ZM15.8574 0.75H25C25.1381 0.75 25.25 0.861929 25.25 1V11.1689C25.25 11.2069 25.2412 11.2442 25.2246 11.2783L21.8857 18.1094C21.8438 18.1952 21.7566 18.25 21.6611 18.25H18.3164C18.1316 18.25 18.0108 18.0567 18.0918 17.8906L20.3994 13.168C20.9671 12.0056 20.1208 10.6506 18.8271 10.6504H15.8574C15.7195 10.6504 15.6076 10.5383 15.6074 10.4004V1C15.6074 0.861929 15.7194 0.75 15.8574 0.75Z" stroke="#FF5722" stroke-width="1.5"/>
</svg>
