<svg width="20" height="17" viewBox="0 0 20 17" fill="none" xmlns="http://www.w3.org/2000/svg">
<path d="M18.7165 0.0663635L0.424849 7.25814C-0.167619 7.49111 -0.131727 8.34891 0.478148 8.53058L5.12624 9.91542L6.86091 15.4689C7.04212 16.049 7.77071 16.2249 8.19248 15.7904L10.5957 13.3146L15.3109 16.8067C15.888 17.2341 16.7098 16.9166 16.8563 16.2097L19.9792 1.14532C20.1322 0.407425 19.4126 -0.207358 18.7165 0.0663635ZM16.4232 3.40952L7.92683 10.99C7.84213 11.0656 7.78825 11.1702 7.77564 11.2835L7.44852 14.2174C7.43784 14.3131 7.30513 14.3258 7.2768 14.2339L5.93095 9.85837C5.90099 9.76098 5.90392 9.6563 5.93927 9.56077C5.97463 9.46523 6.04042 9.38424 6.12631 9.33049L16.1596 3.0521C16.3903 2.90761 16.6266 3.22809 16.4232 3.40952Z" fill="white"/>
</svg>
