<svg width="22" height="13" viewBox="0 0 22 13" fill="none" xmlns="http://www.w3.org/2000/svg">
<path d="M12.0652 12.8279C12.6235 12.8279 12.8517 12.4557 12.8453 11.9891C12.8169 10.2319 13.4998 9.28587 14.7327 10.5188C16.0967 11.8828 16.3791 12.8279 18.0355 12.8279H20.9688C21.7095 12.8279 22.001 12.5895 22.001 12.2155C22.001 11.4245 20.6984 10.0284 19.5947 9.00353C18.0492 7.56894 17.9768 7.53503 19.3078 5.80802C20.9587 3.66393 23.1184 0.91667 21.2081 0.91667H17.5588C16.8511 0.91667 16.7998 1.31542 16.5477 1.90942C15.6356 4.06085 13.9022 6.84753 13.2441 6.42127C12.5556 5.97669 12.871 4.21577 12.9232 1.59867C12.937 0.907503 12.9333 0.433585 11.8773 0.187917C11.3334 0.0629293 10.7771 -0.00011083 10.219 1.46265e-07C8.13545 1.46265e-07 6.69811 0.873587 7.51486 1.02575C8.95495 1.29434 8.81653 4.4101 8.48103 5.75577C7.8962 8.09878 5.69802 3.90043 4.78227 1.80951C4.56135 1.30717 4.49352 0.91667 3.70518 0.91667H0.721419C0.270418 0.91667 0 1.06334 0 1.38967C0 1.94151 2.71334 7.54969 5.30385 10.3455C7.8302 13.0726 10.3272 12.8279 12.0652 12.8279Z" fill="white"/>
</svg>
