<svg width="24" height="24" viewBox="0 0 24 24" fill="none" xmlns="http://www.w3.org/2000/svg">
<path d="M0 24L1.68083 18.0367C0.599957 16.2025 0.030871 14.1155 0.030871 11.9716C0.030871 5.37044 5.40714 0 12.0155 0C18.6238 0 24 5.37044 24 11.9716C24 18.5728 18.6238 23.9432 12.0155 23.9432C9.95636 23.9432 7.94009 23.4167 6.15641 22.417L0 24ZM6.47114 20.239L6.83799 20.4628C8.39314 21.4111 10.1835 21.9124 12.0155 21.9124C17.5028 21.9124 21.967 17.453 21.967 11.9716C21.967 6.49023 17.5028 2.03078 12.0155 2.03078C6.52814 2.03078 2.06386 6.49023 2.06386 11.9716C2.06386 13.8815 2.60727 15.7362 3.6352 17.3352L3.88225 17.7195L2.91432 21.1536L6.47114 20.239Z" fill="white"/>
<path d="M8.64885 6.39967L7.8712 6.35732C7.62712 6.34379 7.38736 6.42572 7.20272 6.58575C6.82571 6.91278 6.22289 7.54503 6.03774 8.36893C5.76163 9.5974 6.18833 11.1017 7.2927 12.606C8.39706 14.1102 10.4551 16.5171 14.0944 17.545C15.2671 17.8763 16.1896 17.653 16.9014 17.1982C17.4652 16.838 17.8538 16.2598 17.9938 15.6062L18.118 15.0269C18.1371 14.9375 18.1253 14.8442 18.0843 14.7625C18.0433 14.6807 17.9757 14.6153 17.8926 14.5771L15.2644 13.367C15.1816 13.3288 15.0882 13.3199 14.9996 13.3417C14.911 13.3634 14.8325 13.4145 14.7767 13.4866L13.7449 14.8227C13.7071 14.872 13.6546 14.9081 13.595 14.9258C13.5354 14.9435 13.4718 14.942 13.4131 14.9214C12.7065 14.6734 10.3397 13.6832 9.04099 11.1843C9.01322 11.1315 9.00196 11.0716 9.00866 11.0123C9.01536 10.9531 9.03971 10.8972 9.07856 10.8519L10.0646 9.7124C10.114 9.65536 10.1463 9.58562 10.1579 9.51113C10.1695 9.43663 10.16 9.36037 10.1303 9.29105L8.99739 6.64344C8.96785 6.57437 8.91955 6.51494 8.85795 6.47186C8.79636 6.42878 8.72393 6.40377 8.64885 6.39967Z" fill="white"/>
</svg>
