<svg width="22" height="16" viewBox="0 0 22 16" fill="none" xmlns="http://www.w3.org/2000/svg">
<path d="M21.5404 2.40475C21.2874 1.45814 20.542 0.712765 19.5954 0.459765C17.8796 -1.22935e-07 11 0 11 0C11 0 4.1204 -1.22935e-07 2.40457 0.459765C1.45814 0.712765 0.712594 1.45814 0.459637 2.40475C0 4.1204 0 7.70013 0 7.70013C0 7.70013 0 11.2798 0.459637 12.9953C0.712594 13.9419 1.45814 14.6874 2.40457 14.9404C4.1204 15.4 11 15.4 11 15.4C11 15.4 17.8796 15.4 19.5954 14.9404C20.542 14.6874 21.2874 13.9419 21.5404 12.9953C22 11.2798 22 7.70013 22 7.70013C22 7.70013 22 4.1204 21.5404 2.40475ZM8.79987 11.0002V4.40004L14.5155 7.70013L8.79987 11.0002Z" fill="white"/>
</svg>
